<?xml version="1.0" encoding="UTF-8" standalone="no"?>
<svg
   xmlns:dc="http://purl.org/dc/elements/1.1/"
   xmlns:cc="http://creativecommons.org/ns#"
   xmlns:rdf="http://www.w3.org/1999/02/22-rdf-syntax-ns#"
   xmlns:svg="http://www.w3.org/2000/svg"
   xmlns="http://www.w3.org/2000/svg"
   viewBox="0 0 1122.5197 793.70081"
   height="793.70081"
   width="1122.5197"
   xml:space="preserve"
   id="svg2"
   version="1.1"><metadata
     id="metadata8"><rdf:RDF><cc:Work
         rdf:about=""><dc:format>image/svg+xml</dc:format><dc:type
           rdf:resource="http://purl.org/dc/dcmitype/StillImage" /></cc:Work></rdf:RDF></metadata><defs
     id="defs6" /><g
     transform="matrix(1.3333333,0,0,-1.3333333,0,793.7008)"
     id="g10"><path
       id="path12"
       style="fill:#fff200;fill-opacity:1;fill-rule:nonzero;stroke:none"
       d="m 607.6641,261.4476 c 0,-1.4083 0.2894,-2.4304 0.8683,-3.1056 0.5978,-0.6753 1.4853,-1.0225 2.7005,-1.0225 1.2734,0 2.9132,0.6367 4.9386,1.8904 2.0063,1.2541 4.0127,2.9322 5.9609,4.9964 2.5274,2.7201 4.5335,5.5751 5.9999,8.6232 1.466,3.0286 2.1991,5.7873 2.1991,8.2565 0,1.8133 -0.3858,3.2409 -1.1574,4.2633 -0.7719,1.0418 -1.8522,1.5628 -3.2604,1.5628 -1.717,0 -3.5688,-0.7719 -5.5364,-2.3344 -1.9485,-1.5624 -4.0512,-3.916 -6.2696,-7.0412 -2.0257,-2.8936 -3.6077,-5.7872 -4.7458,-8.6423 -1.1381,-2.8553 -1.6977,-5.3439 -1.6977,-7.4466 z m -21.7026,19.9471 c -2.1027,-2.122 -4.3018,-4.4563 -6.5781,-7.0413 -2.6152,-2.9698 -5.1103,-5.9995 -7.8709,-8.8545 -3.8968,-3.9546 -6.829,-6.6169 -8.8161,-7.9866 -2.0063,-1.3697 -3.7811,-2.0642 -5.3243,-2.0642 -1.8711,0 -3.3953,0.6559 -4.5527,1.987 -1.1381,1.3119 -1.7169,3.0867 -1.7169,5.3051 0,2.9321 2.6815,8.4302 8.0251,16.4939 0.5981,0.9451 1.061,1.6592 1.3504,2.1606 -2.1027,-2.122 -4.3018,-4.4563 -6.5783,-7.0413 -2.5838,-2.9341 -5.2563,-6.095 -7.9866,-8.8545 -4.0703,-4.1862 -7.0798,-6.9064 -9.0088,-8.1601 -1.9486,-1.2541 -3.7619,-1.8907 -5.4595,-1.8907 -3.5479,0 -4.7458,2.5789 -4.7458,5.7682 0,1.4448 0.3115,2.9781 0.5596,4.3982 -2.6235,-3.3565 -5.1894,-5.8836 -7.6587,-7.6005 -2.4693,-1.717 -4.784,-2.5659 -6.9256,-2.5659 -2.0832,0 -3.7037,1.0417 -4.8997,3.1252 -1.1769,2.1027 -1.775,4.9963 -1.775,8.6811 0,1.8051 0.2684,3.6198 0.7333,5.3628 -0.4439,-0.7137 -0.8875,-1.2733 -1.2926,-1.6591 -0.4006,-0.3821 -1.7555,-1.082 -1.7555,-0.1542 0,0.3087 0.5014,1.0417 1.4661,2.2184 0.9839,1.1574 2.2957,2.5852 3.9546,4.2826 3.6269,3.6269 7.2536,6.4241 10.8802,8.3917 3.6462,1.9871 6.9642,2.971 9.993,2.971 3.3318,0 6.0959,-1.7924 6.0959,-5.3632 0,-0.8586 -0.2024,-1.732 -0.4629,-2.5464 l 4.7647,6.9449 7.6201,0.4629 -12.7128,-20.0049 c -1.8711,-2.9515 -3.0674,-4.9771 -3.5495,-6.1152 -0.703,-1.6308 -1.7229,-4.5142 1.0224,-4.5142 1.0032,0 2.5849,0.8105 4.7455,2.45 2.1413,1.6399 4.7072,4.032 7.7165,7.1572 3.8131,3.8129 7.1935,7.952 10.938,11.8253 4.5142,4.6298 7.7165,8.3917 9.6458,11.2853 l 5.0349,7.5234 h -5.5945 l 0.9454,1.6399 h 5.6522 l 7.0606,11.2467 7.5237,0.5593 -7.4078,-11.806 c 6.1024,0 12.2049,0 18.3073,0 l 7.0605,11.2467 7.5235,0.5593 -7.4078,-11.806 h 13.2916 l -0.9065,-1.6399 H 603.4972 L 586.1931,270.148 c -1.8326,-2.9515 -3.2023,-5.3051 -4.0898,-7.0798 -0.7345,-1.4531 -2.7063,-6.0381 0.6559,-6.0381 1.389,0 3.0674,0.7137 5.0159,2.1413 1.9675,1.4468 4.8033,4.0898 8.5459,7.9673 2.9597,2.9597 5.9961,6.5687 8.7968,9.7226 3.4724,3.7618 6.9834,6.7133 10.5715,8.8353 3.5881,2.1413 6.8485,3.2023 9.7807,3.2023 2.4499,0 4.3789,-0.7523 5.826,-2.257 1.4275,-1.5046 2.1413,-3.5495 2.1413,-6.1154 0,-1.9868 -0.5017,-4.1089 -1.5049,-6.3273 -0.9836,-2.2186 -2.6042,-4.7843 -4.8226,-7.6779 3.0762,0 3.0368,-0.928 6.694,1.0032 3.7908,2.0018 6.893,6.1285 9.7421,9.3368 3.4722,3.7618 6.9832,6.7133 10.5715,8.8353 3.5881,2.1413 6.8483,3.2023 9.7807,3.2023 2.45,0 4.379,-0.7523 5.8258,-2.257 1.4275,-1.5046 2.1413,-3.5495 2.1413,-6.1154 0,-1.9868 -0.5015,-4.1089 -1.5047,-6.3273 -0.9839,-2.2186 -2.6042,-4.7843 -4.8228,-7.6779 3.0764,0 3.037,-0.928 6.694,1.0032 4.6273,2.4435 10.2577,10.0806 13.9861,14.1404 2.4886,2.6812 4.4564,4.8033 5.9225,6.3853 0.6944,1.6203 1.4275,2.8358 2.1991,3.6459 1.0448,1.0701 3.0461,1.8125 4.2633,0.6559 0.8784,-0.8365 0.7361,-2.3839 0,-3.2601 -0.6681,-0.8019 -1.6583,-1.2217 -2.6235,-1.5435 -1.389,-0.54 -2.0835,-1.8326 -2.0835,-3.8967 0,-1.4661 0.3666,-3.7616 1.0803,-6.8483 0.7138,-3.0866 1.061,-5.3821 1.061,-6.887 0,-2.4463 -0.4623,-4.5981 -1.466,-6.829 1.7747,1.7555 3.6652,3.7619 5.6715,6.0188 2.0257,2.2377 3.183,3.3568 3.4725,3.3568 0.3019,0 0.6944,-0.2188 0.6944,-0.5595 0,-0.3473 -0.3472,-0.9261 -1.0224,-1.7555 -0.6752,-0.8294 -1.8519,-2.122 -3.511,-3.8583 -3.9161,-4.0895 -7.1762,-6.9253 -9.7807,-8.488 -2.5849,-1.5625 -5.1893,-2.3536 -7.7935,-2.3536 -2.3729,0 -4.2633,0.5402 -5.7101,1.6398 -1.4276,1.0996 -2.1413,2.5464 -2.1413,4.3597 0,0.9646 0.3665,1.8329 1.0802,2.5852 1.0727,1.1307 2.9696,1.6665 4.2055,0.4822 1.2172,-1.1158 0.6151,-2.3913 0,-3.646 -0.4632,-0.9646 -0.6945,-1.7362 -0.6945,-2.315 0,-0.9241 0.9854,-1.2345 1.7555,-1.2345 2.6235,0 5.2472,2.3919 7.8129,7.1955 2.5849,4.8036 3.8775,10.4751 3.8775,16.9761 0,1.4323 -0.1406,2.9279 -0.2316,4.36 -2.9707,-3.0096 -6.0381,-6.3468 -9.1825,-9.993 -2.8684,-3.3435 -6.1183,-7.7556 -10.0506,-9.7033 -2.9253,-1.4905 -5.7523,-1.8156 -8.9512,-1.389 -2.7587,-2.971 -5.4595,-5.2665 -8.1216,-6.887 -2.6623,-1.6203 -5.0544,-2.4307 -7.1957,-2.4307 -2.4885,0 -4.4175,1.0417 -5.7487,3.1059 -1.3311,2.0642 -2.0063,5.0544 -2.0063,8.932 0,1.7044 0.4473,3.6677 0.9068,5.305 -2.0163,-2.6274 -4.3044,-5.1469 -7.3114,-6.6362 -2.9254,-1.4905 -5.7521,-1.8156 -8.9513,-1.389 -2.7584,-2.971 -5.4592,-5.2665 -8.1215,-6.887 -2.662,-1.6203 -5.0542,-2.4307 -7.1955,-2.4307 -2.4885,0 -4.4178,1.0417 -5.7489,3.1059 -1.3309,2.0642 -2.0061,5.0544 -2.0061,8.932 0,1.7044 0.447,3.6677 0.9065,5.305 -1.9482,-2.5387 -4.2647,-4.9995 -6.4817,-7.2921 -3.8968,-3.9546 -6.8292,-6.6169 -8.816,-7.9866 -2.0064,-1.3697 -3.7811,-2.0642 -5.3243,-2.0642 -4.2341,0 -6.2697,3.3891 -6.2697,7.2921 0,2.9321 2.6813,8.4302 8.0252,16.4939 0.5978,0.9451 1.061,1.6592 1.3501,2.1606 z m -4.3211,-2.4307 c 4.5142,4.6298 7.7165,8.3917 9.6457,11.2853 l 5.0349,7.5234 c -6.1024,0 -12.2048,0 -18.3073,0 L 560.7094,270.148 c -1.8326,-2.9515 -3.2023,-5.3051 -4.0896,-7.0798 -0.8875,-1.7555 -1.3311,-3.0481 -1.3311,-3.839 0,-1.0723 0.8577,-2.1991 1.987,-2.1991 1.389,0 3.0671,0.7137 5.0157,2.1413 1.9678,1.4468 4.8036,4.0898 8.5459,7.9673 3.721,3.7208 7.1132,8.0087 10.8031,11.8253 z M 510.861,261.1003 c 0,-1.0995 0.2508,-1.9675 0.733,-2.6041 0.4825,-0.6367 1.177,-0.9647 2.0449,-0.9647 1.2734,0 2.8551,0.6367 4.7651,1.9293 1.9097,1.273 3.8968,3.0671 5.9609,5.3629 3.1252,3.4338 5.556,6.7711 7.2729,10.0312 1.7167,3.2604 2.5656,6.0769 2.5656,8.4495 0,1.0032 -0.3665,1.8714 -1.0995,2.5659 -0.7331,0.6945 -1.6399,1.0418 -2.6816,1.0418 -1.8904,0 -3.9353,-0.8105 -6.1733,-2.45 -2.2184,-1.6399 -4.4175,-3.9549 -6.5973,-6.9256 -2.1221,-2.9707 -3.7812,-5.961 -4.9774,-8.9317 -1.2152,-2.971 -1.8133,-5.4788 -1.8133,-7.5045 z m -65.5127,60.5163 c 1.6203,5.3629 4.7841,9.7226 9.5106,13.1179 4.7454,3.3954 10.0119,5.0927 15.7994,5.0927 3.7423,0 9.9734,-1.1573 18.7124,-3.4528 3.2023,-0.8297 5.7101,-1.4661 7.5234,-1.91 5.749,-1.4083 11.0347,-2.4693 15.819,-3.2216 4.7841,-0.7523 8.6423,-1.1381 11.594,-1.1381 3.0478,0 6.3468,0.9453 9.8771,2.8165 3.5495,1.8904 5.7486,2.8358 6.6169,2.8358 0.6752,0 1.2537,-0.1931 1.7169,-0.5789 0.4822,-0.3665 0.7138,-0.8294 0.7138,-1.4082 0,-1.4661 -1.1191,-2.6235 -3.3375,-3.4917 -2.2184,-0.868 -5.8261,-1.5239 -10.8417,-1.929 -7.4271,-4.9 -16.4554,-16.2045 -27.0848,-33.9137 -1.582,-2.6238 -2.7779,-4.6491 -3.6073,-6.0381 -6.5206,-10.7067 -13.5425,-18.8668 -21.0467,-24.4998 -7.5237,-5.633 -15.1631,-8.4495 -22.9181,-8.4495 -8.9317,0 -16.0308,2.643 -21.278,7.9095 -5.2665,5.2857 -7.8902,12.4427 -7.8902,21.4903 0,4.8999 0.733,8.7582 2.1991,11.6132 1.4663,2.8358 3.4724,4.2633 5.9998,4.2633 1.1574,0 2.122,-0.3665 2.855,-1.0995 0.7331,-0.7331 1.0996,-1.6977 1.0996,-2.8551 0,-1.4663 -0.4629,-2.6815 -1.4082,-3.6269 -0.9454,-0.9258 -2.2573,-1.5432 -3.9161,-1.794 -0.1738,-0.0386 -0.4246,-0.0772 -0.733,-0.1157 -3.0867,-0.3858 -4.6302,-2.1991 -4.6302,-5.4788 0,-3.0864 0.8876,-6.289 2.6816,-9.6069 1.7941,-3.318 4.1669,-6.2118 7.1569,-8.6615 3.0481,-2.4693 6.4242,-4.3793 10.1087,-5.6719 3.704,-1.2923 7.4659,-1.9482 11.3045,-1.9482 7.7746,0 14.7388,2.5078 20.9503,7.5234 6.1926,4.9963 13.4847,14.565 21.8957,28.7053 6.1344,10.2436 10.9188,17.4776 14.3334,21.6831 3.395,4.2247 6.9253,7.6779 10.5327,10.3399 -2.7777,-0.5207 -5.3051,-0.9065 -7.5813,-1.1574 -2.2572,-0.2508 -4.3985,-0.3665 -6.4431,-0.3665 -4.7073,0 -12.443,1.061 -23.1883,3.2023 -10.7643,2.122 -19.156,3.183 -25.194,3.183 -4.0899,0 -7.5816,-0.9646 -10.4174,-2.8743 -2.855,-1.9293 -4.7265,-4.6106 -5.633,-8.0252 2.8358,0.5596 5.4014,0.9839 7.7165,1.2348 2.334,0.2699 4.4949,0.4051 6.5395,0.4051 8.411,0 15.3559,-1.9678 20.8925,-5.9032 5.5173,-3.9353 8.276,-8.7967 8.276,-14.5454 0,-5.4402 -2.2379,-10.3207 -6.7328,-14.6806 -4.4754,-4.3404 -9.6648,-6.5203 -15.5293,-6.5203 -6.8675,0 -12.6743,2.778 -17.4198,8.3143 -4.7458,5.5367 -7.1186,12.327 -7.1186,20.3908 0,1.3504 0.0771,2.7779 0.2508,4.3018 0.1735,1.5049 0.4244,3.0674 0.7716,4.688 -4.5334,-1.1384 -8.8353,-2.9132 -12.8866,-5.3244 -0.9836,-0.5981 -1.5817,-0.8875 -1.7555,-0.8875 -0.2313,0 -0.4243,0.0771 -0.5978,0.2509 -0.1738,0.1735 -0.2509,0.3472 -0.2509,0.54 0,0.6752 1.5625,1.7555 4.707,3.2408 3.1444,1.4857 6.9063,2.8361 11.2855,4.032 z m 1.1189,-1.466 c -0.1738,-1.389 -0.328,-2.5079 -0.4244,-3.3568 -0.0966,-0.8487 -0.1352,-1.6396 -0.1352,-2.3534 0,-7.4077 2.7009,-13.8319 8.1216,-19.2526 5.4017,-5.4207 11.8834,-8.1408 19.4649,-8.1408 4.2633,0 7.6394,1.0803 10.1279,3.2216 2.4886,2.1413 3.723,5.0541 3.723,8.7003 0,5.9029 -3.2215,11.073 -9.6647,15.4715 -6.4434,4.4176 -14.1018,6.6167 -22.9566,6.6167 -1.2731,0 -2.6042,-0.0771 -3.9547,-0.2313 -1.3504,-0.1545 -2.7972,-0.3666 -4.3018,-0.6752 z m 199.6251,-58.703 c 0,-1.4083 0.2894,-2.4304 0.868,-3.1056 0.5981,-0.6753 1.4856,-1.0225 2.7008,-1.0225 1.2733,0 2.9129,0.6367 4.9385,1.8904 2.0064,1.2541 4.0125,2.9322 5.961,4.9964 2.5271,2.7201 4.5334,5.5751 5.9995,8.6232 1.4661,3.0286 2.1991,5.7873 2.1991,8.2565 0,1.8133 -0.3858,3.2409 -1.1573,4.2633 -0.7716,1.0418 -1.8519,1.5628 -3.2602,1.5628 -1.7169,0 -3.5688,-0.7719 -5.5366,-2.3344 -1.9485,-1.5624 -4.051,-3.916 -6.2697,-7.0412 -2.0256,-2.8936 -3.6073,-5.7872 -4.7454,-8.6423 -1.1384,-2.8553 -1.6977,-5.3439 -1.6977,-7.4466" /><path
       id="path14"
       style="fill:#fff200;fill-opacity:1;fill-rule:nonzero;stroke:none"
       d="m 360.409,272.791 c -2.0469,-2.6674 -4.3384,-5.1296 -6.7133,-7.5044 -3.6651,-3.7423 -6.4624,-6.3083 -8.4302,-7.7165 -1.9482,-1.4083 -3.5881,-2.122 -4.9192,-2.122 -1.4276,0 -2.5657,0.5788 -3.4144,1.7169 -0.8489,1.1577 -1.2733,2.7201 -1.2733,4.7265 0,0.868 0.1542,1.8326 0.4436,2.9129 0.3087,1.061 0.4632,1.7747 0.4632,2.122 0,0.0964 -0.0774,0.2123 -0.193,0.3087 -0.135,0.0964 -0.328,0.1349 -0.5981,0.1349 -1.2538,0 -2.9707,-0.4629 -5.2087,-1.389 -2.2184,-0.9258 -4.1862,-2.0449 -5.9221,-3.3565 -1.2155,-0.9453 -2.5467,-2.3343 -3.9935,-4.1862 -1.4468,-1.8326 -2.6234,-2.7586 -3.5303,-2.7586 -0.4436,0 -0.8101,0.1156 -1.0995,0.3665 -0.2894,0.2316 -0.4244,0.5788 -0.4244,0.9839 0,0.9453 0.4244,1.8326 1.2731,2.6813 0.849,0.8489 2.2379,1.8136 4.1476,2.9131 4.032,3.4725 7.9288,6.7326 11.71,9.7804 3.7615,3.0481 7.4463,5.9224 11.0151,8.5847 -1.8519,-0.4824 -3.3375,-0.8297 -4.4563,-1.0417 -1.1382,-0.2123 -2.1606,-0.3087 -3.0674,-0.3087 -1.3502,0 -2.5464,0.1735 -3.5496,0.54 -1.0224,0.3473 -1.9675,0.9454 -2.8357,1.7751 -2.5271,-3.1252 -4.9,-6.0188 -7.1184,-8.7004 -2.0976,-2.6223 -4.6653,-5.3379 -6.9834,-7.755 -3.8968,-3.9546 -6.829,-6.6169 -8.8161,-7.9866 -2.0063,-1.3697 -3.7811,-2.0642 -5.3243,-2.0642 -1.8714,0 -3.3953,0.6559 -4.5527,1.987 -1.1381,1.3119 -1.7169,3.0867 -1.7169,5.3051 0,3.0481 2.7779,8.7775 8.3531,17.1692 l 0.9065,1.4853 c -2.0642,-2.1606 -4.2247,-4.5334 -6.4431,-7.1376 -1.0732,-1.2507 -2.2045,-2.4242 -3.2602,-3.6848 -1.582,-1.9097 -3.3953,-3.395 -5.4595,-4.4175 -2.0449,-1.0417 -4.1669,-1.5627 -6.3468,-1.5627 -0.6559,0 -1.1766,0.0192 -1.5624,0.0578 -0.4054,0.0388 -0.7526,0.0774 -1.0418,0.1159 -2.7586,-2.971 -5.4595,-5.2665 -8.1218,-6.887 -2.662,-1.6203 -5.0542,-2.4307 -7.1954,-2.4307 -2.4886,0 -4.4178,1.0417 -5.7487,3.1059 -1.3312,2.0642 -2.0064,5.0544 -2.0064,8.932 0,0.7137 0.0771,1.5046 0.2316,2.3533 0.1542,0.8682 0.3665,1.8518 0.675,2.9517 -0.6789,-0.885 -1.4344,-1.707 -2.1413,-2.5852 -0.6364,-0.7909 -2.0835,-2.3726 -4.3405,-4.7069 -3.8967,-3.9546 -6.8289,-6.6169 -8.816,-7.9866 -2.0063,-1.3697 -3.7811,-2.0642 -5.3243,-2.0642 -1.8714,0 -3.3953,0.6559 -4.5527,1.987 -1.1384,1.3119 -1.717,3.0867 -1.717,5.3051 0,2.9321 2.6813,8.4302 8.0252,16.4939 0.5978,0.9451 1.061,1.6592 1.3501,2.1606 -2.1024,-2.122 -4.3018,-4.4563 -6.578,-7.0413 -2.2765,-2.5849 -3.627,-3.8775 -4.0513,-3.8775 -0.1349,0 -0.2506,0.0386 -0.328,0.0964 -0.0771,0.0386 -0.1156,0.1352 -0.1156,0.2509 0,0.7908 2.2569,3.4917 6.7518,8.1408 4.5142,4.6298 7.7165,8.3917 9.6457,11.2853 l 5.0349,7.5234 h -5.5944 l 0.9453,1.6399 h 5.6523 l 7.0606,11.2467 7.5234,0.5593 -7.4078,-11.806 h 13.2917 l -0.9066,-1.6399 h -13.388 L 241.016,270.148 c -1.8326,-2.9515 -3.2023,-5.3051 -4.0895,-7.0798 -0.8875,-1.7555 -1.3312,-3.0481 -1.3312,-3.839 0,-0.5593 0.1928,-1.061 0.5979,-1.5239 0.386,-0.4436 0.8489,-0.6752 1.3889,-0.6752 1.389,0 3.0674,0.7137 5.0159,2.1413 1.9676,1.4468 4.8034,4.0898 8.5459,7.9673 0.8295,0.8294 1.7748,1.8904 2.8744,3.1638 1.9077,2.1676 3.9846,4.3766 5.9224,6.5588 3.4724,3.7618 6.9834,6.7133 10.5715,8.8353 3.5881,2.1413 6.8485,3.2023 9.7807,3.2023 2.45,0 4.3792,-0.7523 5.826,-2.257 1.4276,-1.5046 2.1413,-3.5495 2.1413,-6.1154 0,-1.9868 -0.5017,-4.1089 -1.5046,-6.3273 -0.9839,-2.2186 -2.6045,-4.7843 -4.8229,-7.6779 0.0771,0 0.2509,-0.0385 0.5015,-0.1156 0.5788,-0.1545 1.0224,-0.2316 1.3697,-0.2316 1.5046,0 3.1059,0.4436 4.8228,1.3504 1.717,0.9065 3.2987,2.1606 4.7844,3.7423 0.9566,1.133 1.8992,2.2782 2.8743,3.3953 l 3.6652,4.0125 c 2.3343,2.5271 4.4563,4.8807 6.366,7.0991 1.8907,2.1994 3.1252,3.704 3.6848,4.4949 l 22.8407,35.4183 7.5234,1.0225 -35.6692,-56.5614 c -2.4499,-3.8968 -4.0127,-6.4817 -4.6686,-7.8129 -0.656,-1.3119 -0.9836,-2.3536 -0.9836,-3.1059 0,-0.5981 0.1927,-1.1188 0.5978,-1.5432 0.3858,-0.4436 0.8875,-0.6559 1.4856,-0.6559 1.4083,0 2.9707,0.5981 4.7262,1.7748 1.7555,1.1959 4.8229,3.9738 9.1826,8.3338 2.5242,2.5243 5.1471,5.5749 7.4463,8.3143 2.8746,3.3953 4.9966,6.1345 6.3856,8.1987 -0.1352,0.4631 -0.2701,0.8489 -0.3665,1.1576 -0.0967,0.328 -0.1352,0.5978 -0.1352,0.8294 0,1.0803 0.3472,1.9679 1.0224,2.6235 0.6753,0.6559 1.6013,0.9839 2.7587,0.9839 0.9839,0 1.7362,-0.2313 2.2955,-0.7138 0.5403,-0.4629 0.8104,-1.0802 0.8104,-1.8326 0,-0.5595 -0.1544,-1.2152 -0.4439,-1.9678 -0.3084,-0.7523 -0.4629,-1.2345 -0.4629,-1.4082 0,-0.5786 0.328,-1.0417 0.9839,-1.389 0.6753,-0.3665 1.5821,-0.54 2.7587,-0.54 3.9932,0 7.35,1.1574 10.0701,3.4532 2.7006,2.2955 4.244,3.4336 4.6298,3.4336 0.4437,0 0.8294,-0.1157 1.1381,-0.3665 0.2895,-0.2506 0.4437,-0.54 0.4437,-0.868 0,-1.2926 -1.3697,-2.643 -4.1281,-4.0706 -0.5596,-0.3084 -1.0032,-0.54 -1.2926,-0.6749 -3.5496,-2.5274 -6.9835,-5.093 -10.321,-7.6972 -3.3372,-2.6045 -6.5781,-5.2472 -9.7033,-7.9673 0.3473,0.193 0.8102,0.4243 1.4276,0.733 3.916,1.8519 6.6362,2.778 8.1986,2.778 1.3119,0 2.3922,-0.4051 3.2409,-1.2152 0.8489,-0.8105 1.2733,-1.8329 1.2733,-3.0867 0,-1.1574 -0.4051,-2.6042 -1.2152,-4.3404 -0.8104,-1.7362 -1.2155,-2.7587 -1.2155,-3.0674 0,-0.3279 0.0771,-0.6366 0.2316,-0.8875 0.1349,-0.2699 0.3279,-0.4051 0.5593,-0.4051 0.6366,0 1.8328,0.7138 3.5883,2.122 1.7555,1.4083 4.1667,3.6463 7.2726,6.6941 2.0648,2.0001 4.3892,4.6111 6.2118,6.8677 0.7909,0.9837 1.8905,2.257 3.318,3.8002 3.5498,3.8775 7.1379,6.8677 10.7646,8.9319 3.6462,2.0642 7.099,3.106 10.3787,3.106 1.929,0 3.4725,-0.5018 4.6299,-1.505 1.1766,-0.9839 1.7555,-2.2762 1.7555,-3.8582 0,-3.2023 -2.1028,-6.2887 -6.3275,-9.2789 -4.2248,-2.9707 -9.8771,-5.2665 -16.9569,-6.8868 -0.2123,-1.389 -0.3665,-2.4114 -0.4439,-3.0481 -0.0771,-0.6366 -0.1157,-1.1766 -0.1157,-1.582 0,-1.6974 0.4051,-3.0093 1.2153,-3.9546 0.8104,-0.9451 1.9485,-1.4083 3.4146,-1.4083 1.9678,0 4.0512,0.656 6.2696,1.9486 2.2377,1.2923 4.8807,3.4724 7.9674,6.5202 1.2923,1.2733 2.662,2.7394 4.1088,4.3793 1.4471,1.6395 2.3151,2.4692 2.6237,2.4692 0.1931,0 0.3473,-0.0581 0.4822,-0.1737 0.1352,-0.1157 0.1931,-0.2509 0.1931,-0.4051 0,-0.328 -0.3666,-0.9454 -1.0803,-1.7941 -0.7138,-0.8682 -2.3151,-2.5849 -4.8036,-5.1508 -3.3761,-3.395 -6.3661,-5.8258 -8.9317,-7.2918 -2.5466,-1.4661 -5.0159,-2.1994 -7.3885,-2.1994 -2.8746,0 -5.2279,1.1769 -7.0608,3.5302 -1.8519,2.3536 -2.7777,5.3439 -2.7777,8.9513 0,0.7523 0.0578,1.5432 0.1735,2.3533 0.1156,0.8104 0.2701,1.6398 0.5014,2.5081 z m 6.289,-3.839 c 5.1508,1.1381 9.5879,3.3565 13.2724,6.6748 3.6847,3.2986 5.5366,6.4238 5.5366,9.3175 0,0.6366 -0.193,1.1766 -0.5981,1.6398 -0.3858,0.4436 -0.868,0.6752 -1.4275,0.6752 -2.5271,0 -5.4978,-1.7748 -8.8739,-5.305 -3.3953,-3.5499 -6.0381,-7.871 -7.9095,-13.0023 z m -104.2109,-7.5044 c 0,-1.4083 0.2894,-2.4304 0.8682,-3.1056 0.5981,-0.6753 1.4854,-1.0225 2.7009,-1.0225 1.273,0 2.9128,0.6367 4.9385,1.8904 2.0061,1.2541 4.0124,2.9322 5.961,4.9964 2.527,2.7201 4.5334,5.5751 5.9995,8.6232 1.4661,3.0286 2.1991,5.7873 2.1991,8.2565 0,1.8133 -0.3858,3.2409 -1.1574,4.2633 -0.7719,1.0418 -1.8521,1.5628 -3.2604,1.5628 -1.7167,0 -3.5688,-0.7719 -5.5363,-2.3344 -1.9486,-1.5624 -4.0513,-3.916 -6.2697,-7.0412 -2.0256,-2.8936 -3.6077,-5.7872 -4.7458,-8.6423 -1.1381,-2.8553 -1.6976,-5.3439 -1.6976,-7.4466 z m -52.549,38.5438 c 2.3341,0.868 4.6298,1.9675 6.9253,3.2987 2.2765,1.3504 4.572,2.9514 6.9064,4.8421 -1.5047,1.9675 -2.9129,3.6459 -4.2633,5.0349 -1.3312,1.389 -2.6816,2.6042 -4.032,3.6074 -1.4661,-4.3597 -2.6042,-7.7358 -3.3758,-10.0891 -0.7716,-2.3536 -1.4857,-4.5913 -2.1606,-6.694 z m 6.3275,18.7702 c 2.0254,-1.9293 4.6298,-4.7651 7.7936,-8.5459 l 0.7908,-0.9454 c 0.984,0.8294 1.9679,1.717 2.9518,2.6813 0.9643,0.9647 1.9868,2.0449 3.0478,3.2412 -0.1157,0.9065 -0.2121,1.7555 -0.3087,2.527 -0.0964,0.7716 -0.1542,1.3312 -0.1542,1.717 0,2.0642 0.5014,3.9161 1.5046,5.5171 1.0032,1.6012 2.0835,2.3921 3.2409,2.3921 0.733,0 1.3118,-0.2701 1.7555,-0.7909 0.4631,-0.521 0.6752,-1.1959 0.6752,-2.0256 0,-1.5239 -1.6977,-4.7647 -5.1313,-9.7806 l -0.1738,-0.2892 c 1.0225,-2.3343 2.3729,-4.0898 4.0513,-5.2857 1.6588,-1.177 3.6459,-1.7748 5.9032,-1.7748 3.3565,0 6.173,1.273 8.4687,3.8194 2.2955,2.5274 3.4532,5.7104 3.4532,9.5105 0,4.5142 -1.5242,8.2953 -4.5527,11.3046 -3.0288,3.0095 -6.8485,4.5141 -11.4398,4.5141 -4.9,0 -9.2211,-1.5239 -12.983,-4.572 -3.7425,-3.0478 -6.7133,-7.4656 -8.8931,-13.2142 z M 202.125,297.8887 c 1.1769,6.3082 2.3343,11.2271 3.511,14.7574 1.1576,3.5498 2.5659,6.5013 4.1862,8.8742 -5.44,4.1859 -11.0537,7.3689 -16.8798,9.549 -5.826,2.1799 -11.594,3.2794 -17.3233,3.2794 -5.5752,0 -9.9545,-1.3311 -13.1375,-3.9931 -3.183,-2.6431 -4.784,-6.289 -4.784,-10.9188 0,-5.961 3.2408,-11.2275 9.7418,-15.7995 6.5013,-4.572 14.3334,-6.8675 23.4967,-6.8675 1.5434,0 3.2218,0.0964 4.9966,0.2892 1.794,0.1737 3.8582,0.4631 6.1923,0.8297 z m -0.7909,-3.6655 c -3.1252,-0.7523 -5.9417,-1.3116 -8.4688,-1.6589 -2.5271,-0.3665 -4.8614,-0.5402 -7.022,-0.5402 -8.8545,0 -16.1081,2.315 -21.7604,6.9256 -5.6523,4.6105 -8.4688,10.5134 -8.4688,17.7091 0,6.2504 2.122,11.4203 6.3853,15.5101 4.2633,4.0895 9.665,6.1344 16.2238,6.1344 4.8615,0 10.0123,-1.273 15.4908,-3.8196 5.4595,-2.5271 11.2082,-6.3468 17.227,-11.4395 3.704,4.784 8.276,8.5266 13.7163,11.2274 5.44,2.6813 11.1308,4.0317 17.0918,4.0317 5.498,0 9.9737,-1.4468 13.388,-4.3211 3.4339,-2.8743 5.1508,-6.5976 5.1508,-11.1696 0,-4.8419 -1.6398,-8.9124 -4.9192,-12.1918 -3.2794,-3.2797 -7.3692,-4.9193 -12.2692,-4.9193 -2.8165,0 -5.2087,0.5981 -7.1376,1.7748 -1.9486,1.1959 -3.511,3.0285 -4.7265,5.5171 l -5.2472,-5.247 c 2.1801,-2.8746 3.8582,-5.2857 5.0544,-7.2535 1.196,-1.9483 1.7748,-3.2795 1.7748,-3.9547 0,-0.2123 -0.0578,-0.3858 -0.1545,-0.5017 -0.1157,-0.1156 -0.2891,-0.1735 -0.5207,-0.1735 -0.2702,0 -1.1189,1.2345 -2.6045,3.6845 -1.4661,2.45 -3.0285,4.765 -4.6877,6.9449 -3.5109,-2.6428 -6.4624,-4.6877 -8.8931,-6.1538 -2.4307,-1.4856 -4.765,-2.6237 -6.9834,-3.4531 -3.9546,-13.4844 -9.665,-23.7665 -17.1306,-30.8466 -7.4656,-7.0606 -16.3205,-10.5908 -26.6219,-10.5908 -8.2757,0 -14.97,2.4307 -20.082,7.3114 -5.1123,4.8807 -7.6587,11.2853 -7.6587,19.1948 0,5.2276 1.1188,9.8574 3.3375,13.8702 2.2184,4.0124 4.6106,6.0188 7.1762,6.0188 1.1381,0 2.122,-0.4051 2.9514,-1.2348 0.8297,-0.8294 1.2348,-1.8519 1.2348,-3.0478 0,-1.3504 -0.5017,-2.4885 -1.5046,-3.3953 -0.9839,-0.9066 -2.2572,-1.3505 -3.8004,-1.3505 -0.8297,0 -1.7555,0.1545 -2.778,0.4825 -1.0224,0.3087 -1.6013,0.4822 -1.7555,0.4822 -0.521,0 -1.0031,-0.5982 -1.4275,-1.8134 -0.4436,-1.2155 -0.6559,-2.6237 -0.6559,-4.244 0,-7.755 3.1059,-14.5647 9.2982,-20.41 6.1925,-5.8453 13.3302,-8.7582 21.3746,-8.7582 7.9095,0 14.4879,3.0674 19.7351,9.1825 5.2279,6.1348 8.7968,14.9508 10.6679,26.4867" /></g></svg>